<svg version="1.1" id="Слой_1" x="0px" y="0px" viewBox="0 0 784.23029 998.67535" xml:space="preserve" sodipodi:docname="s.svg" inkscape:version="1.2 (dc2aedaf03, 2022-05-15)" width="784.23029" height="998.67535" xmlns:inkscape="http://www.inkscape.org/namespaces/inkscape" xmlns:sodipodi="http://sodipodi.sourceforge.net/DTD/sodipodi-0.dtd" xmlns="http://www.w3.org/2000/svg" xmlns:svg="http://www.w3.org/2000/svg"><defs id="defs798"/><sodipodi:namedview id="namedview796" pagecolor="#505050" bordercolor="#eeeeee" borderopacity="1" inkscape:showpageshadow="0" inkscape:pageopacity="0" inkscape:pagecheckerboard="0" inkscape:deskcolor="#505050" showgrid="false" inkscape:zoom="0.236" inkscape:cx="133.47458" inkscape:cy="497.88136" inkscape:window-width="1440" inkscape:window-height="845" inkscape:window-x="0" inkscape:window-y="31" inkscape:window-maximized="1" inkscape:current-layer="Слой_1"/>
<g id="g781" transform="matrix(2.3771758,0,0,2.3771758,-768.80243,-700.17336)">
	<path d="m 389.33,534.77 c -8.2,0 -15.97,-1.61 -23.29,-4.83 -7.32,-3.22 -13.72,-7.52 -19.19,-12.89 -5.47,-5.37 -9.77,-11.72 -12.89,-19.04 -3.13,-7.32 -4.69,-15.09 -4.69,-23.29 V 354.59 c 0,-8.2 1.56,-15.97 4.69,-23.29 3.12,-7.32 7.42,-13.67 12.89,-19.04 5.47,-5.37 11.87,-9.67 19.19,-12.89 7.32,-3.22 15.09,-4.83 23.29,-4.83 h 203.91 c 8.2,0 15.97,1.61 23.29,4.83 7.32,3.22 13.72,7.52 19.19,12.89 5.46,5.37 9.76,11.72 12.89,19.04 3.12,7.32 4.69,15.09 4.69,23.29 v 27.25 c 0,14.89 -12.07,26.95 -26.95,26.95 h -6.15 c -14.89,0 -26.95,-12.07 -26.95,-26.95 v -0.29 c 0,-14.89 -12.07,-26.95 -26.95,-26.95 h -150 c -14.89,0 -26.95,12.07 -26.95,26.95 v 66.21 c 0,14.89 12.07,26.95 26.95,26.95 h 176.95 c 8.2,0 15.97,1.57 23.29,4.69 7.32,3.13 13.72,7.42 19.19,12.89 5.46,5.47 9.76,11.87 12.89,19.19 3.12,7.32 4.69,15.09 4.69,23.29 v 119.82 c 0,8.2 -1.57,15.97 -4.69,23.29 -3.13,7.32 -7.43,13.72 -12.89,19.19 -5.47,5.47 -11.87,9.77 -19.19,12.89 -7.32,3.13 -15.09,4.69 -23.29,4.69 H 383.47 c -8.2,0 -15.97,-1.56 -23.29,-4.69 -7.32,-3.12 -13.72,-7.42 -19.19,-12.89 -5.47,-5.47 -9.77,-11.87 -12.89,-19.19 -3.13,-7.32 -4.69,-15.09 -4.69,-23.29 v -26.95 c 0,-14.89 12.07,-26.95 26.95,-26.95 h 6.15 c 14.89,0 26.95,12.07 26.95,26.95 v 0 c 0,14.89 12.07,26.95 26.95,26.95 h 155.86 c 14.89,0 26.95,-12.07 26.95,-26.95 v -65.92 c 0,-14.89 -12.07,-26.95 -26.95,-26.95 z" id="path779"/>
</g>
<g id="g783" transform="translate(-8.7508955,-5.6690201)">
</g>
<g id="g785" transform="translate(-8.7508955,-5.6690201)">
</g>
<g id="g787" transform="translate(-8.7508955,-5.6690201)">
</g>
<g id="g789" transform="translate(-8.7508955,-5.6690201)">
</g>
<g id="g791" transform="translate(-8.7508955,-5.6690201)">
</g>
<g id="g793" transform="translate(-8.7508955,-5.6690201)">
</g>
</svg>